<svg width="20" height="38" fill="none" xmlns="http://www.w3.org/2000/svg">
    <path fill="#8BA5D8" d="M18.778 13.38a4.172 4.172 0 0 0-2.945-1.223h-1.877V3.095A3.098 3.098 0 0 0 10.862 0H9.138a3.098 3.098 0 0 0-3.094 3.094v9.063H4.169A4.172 4.172 0 0 0 0 16.324V31.26a4.165 4.165 0 0 0 2.48 3.804 1.354 1.354 0 1 0 2.343.363h10.355a1.355 1.355 0 1 0 2.344-.363A4.165 4.165 0 0 0 20 31.259V16.324a4.17 4.17 0 0 0-1.222-2.945ZM9.138 1.561h1.724a1.534 1.534 0 0 1 1.532 1.532v9.063H7.606V3.094a1.534 1.534 0 0 1 1.532-1.531Zm9.195 29.697a2.5 2.5 0 0 1-2.5 2.5H4.167a2.5 2.5 0 0 1-2.5-2.5V16.324a2.5 2.5 0 0 1 2.5-2.5h11.666a2.5 2.5 0 0 1 2.5 2.5V31.26Z"/>
    <path fill="#8BA5D8" d="M6.825 15.907a.833.833 0 0 0-.833.834v13.717a.834.834 0 1 0 1.667 0V16.741a.834.834 0 0 0-.834-.834ZM13.175 15.907a.834.834 0 0 0-.834.834v13.717a.834.834 0 1 0 1.667 0V16.741a.833.833 0 0 0-.833-.834Z"/>
</svg>